<svg xmlns="http://www.w3.org/2000/svg" viewBox="0 0 600 180" role="img">
  <rect width="100%" height="100%" fill="#F9F5EF"/>
  <path d="M730 1420Q879.5 1420 1002.75 1367.0Q1126 1314 1215.5 1217.75Q1305 1121.5 1353.5 990.5Q1402 859.5 1402 704Q1402 541 1353.25 407.5Q1304.5 274 1215.0 178.5Q1125.5 83 1002.75 31.5Q880 -20 732.5 -20Q582.5 -20 459.0 32.75Q335.5 85.5 246.25 182.25Q157 279 108.5 411.75Q60 544.5 60 705Q60 865 109.25 996.5Q158.5 1128 248.5 1222.5Q338.5 1317 461.0 1368.5Q583.5 1420 730 1420ZM1154 520Q1154 663 1129.25 793.5Q1104.5 924 1059.75 1033.75Q1015 1143.5 953.75 1224.75Q892.5 1306 819.75 1350.75Q747 1395.5 666 1395.5Q560 1395.5 479.0 1337.25Q398 1279 352.5 1166.25Q307 1053.5 307 890Q307 745 331.75 612.75Q356.5 480.5 401.5 369.75Q446.5 259 507.5 177.0Q568.5 95 642.0 49.75Q715.5 4.5 796.5 4.5Q904.5 4.5 985.0 62.0Q1065.5 119.5 1109.75 234.25Q1154 349 1154 520Z" transform="translate(162.352 118.000) scale(0.048000 -0.048000)" fill="#3A3228"/>
  <path d="M112 842 22 859Q17 860.5 15.0 862.25Q13 864 13 867Q13 869.5 15.0 871.25Q17 873 19 873H109Q116.5 873 121.0 875.25Q125.5 877.5 129 883L297 1069Q302 1073.5 306.75 1076.25Q311.5 1079 316 1079Q321 1079 324.0 1075.75Q327 1072.5 327 1066V216Q327 137 357.25 98.5Q387.5 60 440 60Q459.5 60 477.0 65.5Q494.5 71 509.5 83.0Q524.5 95 536.25 114.25Q548 133.5 556 161Q558 166.5 562.0 166.0Q566 165.5 564 159Q548 99 520.75 60.0Q493.5 21 452.25 2.0Q411 -17 353 -17Q245 -17 185.5 34.5Q126 86 126 193V823Q126 831.5 123.25 836.25Q120.5 841 112 842ZM261 854 267 873H557Q562 873 564.0 871.5Q566 870 566 866Q566 861 560.0 857.5Q554 854 543 854Z" transform="translate(236.528 118.000) scale(0.048000 -0.048000)" fill="#3A3228"/>
  <path d="M343 879V53Q343 40.5 348.75 33.0Q354.5 25.5 367 23L426 13.5Q432 13 434.0 11.0Q436 9 436 6Q436 3.5 434.0 1.75Q432 0 428 0H47Q44.5 0 42.25 1.75Q40 3.5 40 6Q40 8 42.0 9.75Q44 11.5 49 12.5L111 23Q124 25.5 129.5 33.0Q135 40.5 135 52V787Q135 792.5 132.25 795.75Q129.5 799 122.5 799H51Q47 799 45.0 801.0Q43 803 43 805.5Q43 809 45.25 810.5Q47.5 812 51 813L314.5 886.5Q323 889 326.25 889.5Q329.5 890 333 890Q338 890 340.5 886.75Q343 883.5 343 879ZM234 1033.5Q178 1033.5 143.0 1071.25Q108 1109 108 1163.5Q108 1218.5 143.5 1256.25Q179 1294 234 1294Q290.5 1294 326.5 1256.0Q362.5 1218 362.5 1163.5Q362.5 1109 326.25 1071.25Q290 1033.5 234 1033.5Z" transform="translate(268.416 118.000) scale(0.048000 -0.048000)" fill="#3A3228"/>
  <path d="M689.5 31V158V163V785Q689.5 790.5 686.75 793.75Q684 797 677 797H605.5Q601.5 797 599.5 799.0Q597.5 801 597.5 803.5Q597.5 807 599.75 808.5Q602 810 605.5 811L869 884.5Q877 887 880.5 887.5Q884 888 887.5 888Q892.5 888 895.0 884.75Q897.5 881.5 897.5 877V53Q897.5 40.5 903.25 33.0Q909 25.5 921.5 23L980.5 13.5Q986.5 13 988.5 11.0Q990.5 9 990.5 6Q990.5 3.5 988.5 1.75Q986.5 0 982.5 0H716.5Q703.5 0 696.5 7.75Q689.5 15.5 689.5 31ZM125 238V785Q125 790.5 122.0 793.75Q119 797 111.5 797H40Q36 797 34.0 799.0Q32 801 32 803.5Q32 807 34.25 808.5Q36.5 810 40 811L304.5 884.5Q313 887 316.25 887.5Q319.5 888 323 888Q328 888 330.5 884.75Q333 881.5 333 877V259Q333 164 376.5 120.0Q420 76 492 76Q537 76 583.5 95.5Q630 115 677 158L711 188.5L720 179L685 147.5Q583.5 56.5 504.0 20.25Q424.5 -16 354.5 -16Q255 -16 190.0 45.75Q125 107.5 125 238Z" transform="translate(294.544 118.000) scale(0.048000 -0.048000)" fill="#3A3228"/>
  <path d="M338 878V52Q338 41 344.5 32.75Q351 24.5 363 22L422 13Q431 12 431 6Q431 0 422 0H43Q39.5 0 37.25 2.0Q35 4 35 6Q35 8 37.75 10.0Q40.5 12 45 13L106 23Q119 25.5 124.5 32.5Q130 39.5 130 49V785Q130 791 127.5 795.0Q125 799 118 799H44Q41.5 799 39.25 801.0Q37 803 37 805Q37 808 39.25 810.0Q41.5 812 46 813L310 887Q317 889.5 320.75 889.75Q324.5 890 328 890Q333.5 890 335.75 886.25Q338 882.5 338 878ZM320 688 311 696 345 728Q445 822 524.25 857.5Q603.5 893 673 893Q772.5 893 836.25 831.25Q900 769.5 900 639V53Q900 39 907.5 30.75Q915 22.5 929 20L973 13Q982 11 982 6Q982 0 971 0H607Q599 0 599 6Q599 12 609 13L664 21Q683 25 689.0 36.75Q695 48.5 695 64V617Q695 708 650.5 754.5Q606 801 536 801Q488 801 443.75 782.0Q399.5 763 353 719ZM875.5 688 866.5 696 897.5 731Q976 817.5 1044.25 855.25Q1112.5 893 1185.5 893Q1278 893 1336.75 831.25Q1395.5 769.5 1412.5 638L1489 55Q1491 39.5 1498.5 30.5Q1506 21.5 1520 19L1563 12Q1567 11.5 1569.0 10.0Q1571 8.5 1571 6Q1571 3.5 1569.0 1.75Q1567 0 1563 0H1187Q1179 0 1179 6Q1179 11 1189 13L1244 21Q1263 24.5 1270.0 37.0Q1277 49.5 1275 66L1207.5 617Q1195.5 708 1159.75 754.5Q1124 801 1059.5 801Q1020 801 983.0 781.5Q946 762 905.5 722Z" transform="translate(347.264 118.000) scale(0.048000 -0.048000)" fill="#3A3228"/>
  <circle cx="433.008" cy="115.840" r="4.320" fill="#C8922A"/>
</svg>
