<svg xmlns="http://www.w3.org/2000/svg" viewBox="0 0 200 200" role="img">
  <rect width="100%" height="100%" fill="#F9F5EF"/>
  <path d="M730 1420Q879.5 1420 1002.75 1367.0Q1126 1314 1215.5 1217.75Q1305 1121.5 1353.5 990.5Q1402 859.5 1402 704Q1402 541 1353.25 407.5Q1304.5 274 1215.0 178.5Q1125.5 83 1002.75 31.5Q880 -20 732.5 -20Q582.5 -20 459.0 32.75Q335.5 85.5 246.25 182.25Q157 279 108.5 411.75Q60 544.5 60 705Q60 865 109.25 996.5Q158.5 1128 248.5 1222.5Q338.5 1317 461.0 1368.5Q583.5 1420 730 1420ZM1154 520Q1154 663 1129.25 793.5Q1104.5 924 1059.75 1033.75Q1015 1143.5 953.75 1224.75Q892.5 1306 819.75 1350.75Q747 1395.5 666 1395.5Q560 1395.5 479.0 1337.25Q398 1279 352.5 1166.25Q307 1053.5 307 890Q307 745 331.75 612.75Q356.5 480.5 401.5 369.75Q446.5 259 507.5 177.0Q568.5 95 642.0 49.75Q715.5 4.5 796.5 4.5Q904.5 4.5 985.0 62.0Q1065.5 119.5 1109.75 234.25Q1154 349 1154 520Z" transform="translate(45.175 152.500) scale(0.075000 -0.075000)" fill="#3A3228"/>
  <circle cx="110.065" cy="78.400" r="6.750" fill="#3A3228"/>
</svg>
